<svg width="28" height="28" viewBox="0 0 28 28" fill="none" xmlns="http://www.w3.org/2000/svg">
<path d="M13.9998 26.8333C13.6904 26.8333 13.3937 26.7104 13.1749 26.4916C12.9561 26.2728 12.8332 25.9761 12.8332 25.6667V22.1667H8.1665C7.54767 22.1667 6.95417 21.9208 6.51659 21.4833C6.079 21.0457 5.83317 20.4522 5.83317 19.8333V8.16667C5.83317 7.54783 6.079 6.95434 6.51659 6.51676C6.95417 6.07917 7.54767 5.83334 8.1665 5.83334H24.4998C25.1187 5.83334 25.7122 6.07917 26.1498 6.51676C26.5873 6.95434 26.8332 7.54783 26.8332 8.16667V19.8333C26.8332 20.4522 26.5873 21.0457 26.1498 21.4833C25.7122 21.9208 25.1187 22.1667 24.4998 22.1667H19.7165L15.3998 26.495C15.1665 26.705 14.8865 26.8333 14.5832 26.8333H13.9998ZM15.1665 19.8333V23.4267L18.7598 19.8333H24.4998V8.16667H8.1665V19.8333H15.1665ZM3.49984 17.5H1.1665V3.50001C1.1665 2.88117 1.41234 2.28767 1.84992 1.85009C2.28751 1.4125 2.881 1.16667 3.49984 1.16667H22.1665V3.50001H3.49984V17.5ZM10.4998 10.5H22.1665V12.8333H10.4998V10.5ZM10.4998 15.1667H19.8332V17.5H10.4998V15.1667Z" fill="black"/>
</svg>
