<svg width="28" height="28" viewBox="0 0 28 28" fill="none" xmlns="http://www.w3.org/2000/svg">
<path fill-rule="evenodd" clip-rule="evenodd" d="M18.6673 10.5C18.6673 11.7377 18.1757 12.9247 17.3005 13.7998C16.4253 14.675 15.2383 15.1667 14.0007 15.1667C12.763 15.1667 11.576 14.675 10.7008 13.7998C9.82565 12.9247 9.33398 11.7377 9.33398 10.5C9.33398 9.26233 9.82565 8.07535 10.7008 7.20018C11.576 6.32501 12.763 5.83334 14.0007 5.83334C15.2383 5.83334 16.4253 6.32501 17.3005 7.20018C18.1757 8.07535 18.6673 9.26233 18.6673 10.5ZM16.334 10.5C16.334 11.1188 16.0882 11.7123 15.6506 12.1499C15.213 12.5875 14.6195 12.8333 14.0007 12.8333C13.3818 12.8333 12.7883 12.5875 12.3507 12.1499C11.9132 11.7123 11.6673 11.1188 11.6673 10.5C11.6673 9.88117 11.9132 9.28768 12.3507 8.85009C12.7883 8.41251 13.3818 8.16668 14.0007 8.16668C14.6195 8.16668 15.213 8.41251 15.6506 8.85009C16.0882 9.28768 16.334 9.88117 16.334 10.5Z" fill="black"/>
<path fill-rule="evenodd" clip-rule="evenodd" d="M14.0003 1.16667C6.91283 1.16667 1.16699 6.91251 1.16699 14C1.16699 21.0875 6.91283 26.8333 14.0003 26.8333C21.0878 26.8333 26.8337 21.0875 26.8337 14C26.8337 6.91251 21.0878 1.16667 14.0003 1.16667ZM3.50033 14C3.50033 16.4383 4.33216 18.683 5.72633 20.4657C6.70543 19.1799 7.96854 18.1379 9.417 17.421C10.8655 16.7042 12.46 16.3319 14.0762 16.3333C15.6714 16.3318 17.2459 16.6944 18.6797 17.3936C20.1136 18.0927 21.3689 19.1099 22.3502 20.3677C23.361 19.0419 24.0416 17.4944 24.3357 15.8534C24.6298 14.2123 24.5288 12.5248 24.0412 10.9305C23.5536 9.33618 22.6934 7.88089 21.5317 6.68505C20.37 5.4892 18.9403 4.58717 17.3608 4.0536C15.7813 3.52002 14.0974 3.37024 12.4485 3.61664C10.7996 3.86304 9.23308 4.49854 7.87856 5.47057C6.52403 6.44259 5.42044 7.72319 4.65909 9.2064C3.89775 10.6896 3.50054 12.3328 3.50033 14ZM14.0003 24.5C11.5899 24.5036 9.2523 23.6744 7.38299 22.1527C8.13541 21.0755 9.13689 20.1961 10.3022 19.5891C11.4675 18.9822 12.7622 18.6657 14.0762 18.6667C15.3737 18.6656 16.6527 18.9742 17.8071 19.5667C18.9614 20.1592 19.9578 21.0185 20.7133 22.0733C18.8295 23.6445 16.4533 24.5034 14.0003 24.5Z" fill="black"/>
</svg>
