<svg width="28" height="28" viewBox="0 0 28 28" fill="none" xmlns="http://www.w3.org/2000/svg">
<path d="M25.3233 6.17283L21.8245 2.67516C21.7164 2.56661 21.5878 2.48053 21.4462 2.42186C21.3047 2.3632 21.1529 2.33311 20.9997 2.33333H6.99968C6.84644 2.33311 6.69468 2.3632 6.55312 2.42186C6.41156 2.48053 6.283 2.56661 6.17484 2.67516L2.67601 6.17283C2.56701 6.28095 2.48056 6.40964 2.42168 6.55143C2.3628 6.69322 2.33266 6.8453 2.33301 6.99883V22.1667C2.33301 23.4535 3.37951 24.5 4.66634 24.5H23.333C24.6198 24.5 25.6663 23.4535 25.6663 22.1667V6.99883C25.6667 6.8453 25.6366 6.69322 25.5777 6.55143C25.5188 6.40964 25.4323 6.28095 25.3233 6.17283ZM7.48268 4.66666H20.5167L21.6822 5.83216H6.31718L7.48268 4.66666ZM4.66634 22.1667V8.1655H23.333L23.3353 22.1667H4.66634Z" fill="black"/>
<path d="M17.5003 14H10.5003V11.6667H8.16699V16.3333H19.8337V11.6667H17.5003V14Z" fill="black"/>
</svg>
