<svg width="24" height="24" viewBox="0 0 24 24" fill="none" xmlns="http://www.w3.org/2000/svg">
<path d="M8.4 22C7.74 22 7.1752 21.7554 6.7056 21.2663C6.2352 20.7763 6 20.1875 6 19.5C6 18.8125 6.2352 18.2237 6.7056 17.7337C7.1752 17.2446 7.74 17 8.4 17C9.06 17 9.6252 17.2446 10.0956 17.7337C10.5652 18.2237 10.8 18.8125 10.8 19.5C10.8 20.1875 10.5652 20.7763 10.0956 21.2663C9.6252 21.7554 9.06 22 8.4 22ZM15.6 22C14.94 22 14.3752 21.7554 13.9056 21.2663C13.4352 20.7763 13.2 20.1875 13.2 19.5C13.2 18.8125 13.4352 18.2237 13.9056 17.7337C14.3752 17.2446 14.94 17 15.6 17C16.26 17 16.8252 17.2446 17.2956 17.7337C17.7652 18.2237 18 18.8125 18 19.5C18 20.1875 17.7652 20.7763 17.2956 21.2663C16.8252 21.7554 16.26 22 15.6 22ZM8.4 14.5C7.74 14.5 7.1752 14.255 6.7056 13.765C6.2352 13.2758 6 12.6875 6 12C6 11.3125 6.2352 10.7237 6.7056 10.2337C7.1752 9.74458 7.74 9.5 8.4 9.5C9.06 9.5 9.6252 9.74458 10.0956 10.2337C10.5652 10.7237 10.8 11.3125 10.8 12C10.8 12.6875 10.5652 13.2758 10.0956 13.765C9.6252 14.255 9.06 14.5 8.4 14.5ZM15.6 14.5C14.94 14.5 14.3752 14.255 13.9056 13.765C13.4352 13.2758 13.2 12.6875 13.2 12C13.2 11.3125 13.4352 10.7237 13.9056 10.2337C14.3752 9.74458 14.94 9.5 15.6 9.5C16.26 9.5 16.8252 9.74458 17.2956 10.2337C17.7652 10.7237 18 11.3125 18 12C18 12.6875 17.7652 13.2758 17.2956 13.765C16.8252 14.255 16.26 14.5 15.6 14.5ZM8.4 7C7.74 7 7.1752 6.755 6.7056 6.265C6.2352 5.77583 6 5.1875 6 4.5C6 3.8125 6.2352 3.22417 6.7056 2.735C7.1752 2.245 7.74 2 8.4 2C9.06 2 9.6252 2.245 10.0956 2.735C10.5652 3.22417 10.8 3.8125 10.8 4.5C10.8 5.1875 10.5652 5.77583 10.0956 6.265C9.6252 6.755 9.06 7 8.4 7ZM15.6 7C14.94 7 14.3752 6.755 13.9056 6.265C13.4352 5.77583 13.2 5.1875 13.2 4.5C13.2 3.8125 13.4352 3.22417 13.9056 2.735C14.3752 2.245 14.94 2 15.6 2C16.26 2 16.8252 2.245 17.2956 2.735C17.7652 3.22417 18 3.8125 18 4.5C18 5.1875 17.7652 5.77583 17.2956 6.265C16.8252 6.755 16.26 7 15.6 7Z" fill="#B5B5A8"/>
</svg>
