<svg width="28" height="28" viewBox="0 0 28 28" fill="none" xmlns="http://www.w3.org/2000/svg">
<path d="M26.25 21H22.75V17.5H21V21H17.5V22.75H21V26.25H22.75V22.75H26.25V21Z" fill="black"/>
<path d="M14 24.5H7V3.49999H14V8.74999C14.0014 9.2137 14.1862 9.65801 14.5141 9.9859C14.842 10.3138 15.2863 10.4986 15.75 10.5H21V14H22.75V8.74999C22.7531 8.635 22.7312 8.5207 22.6859 8.41496C22.6406 8.30923 22.5729 8.21456 22.4875 8.13749L16.3625 2.01249C16.2855 1.92704 16.1908 1.85932 16.0851 1.814C15.9793 1.76869 15.865 1.74685 15.75 1.74999H7C6.5363 1.75138 6.09198 1.9362 5.76409 2.26409C5.4362 2.59197 5.25138 3.03629 5.25 3.49999V24.5C5.25138 24.9637 5.4362 25.408 5.76409 25.7359C6.09198 26.0638 6.5363 26.2486 7 26.25H14V24.5ZM15.75 3.84999L20.65 8.74999H15.75V3.84999Z" fill="black"/>
</svg>
