<svg width="24" height="24" viewBox="0 0 24 24" fill="none" xmlns="http://www.w3.org/2000/svg">
<path d="M6.99991 14.18V3C6.99991 2.73478 6.89456 2.48043 6.70702 2.29289C6.51948 2.10536 6.26513 2 5.99991 2C5.7347 2 5.48034 2.10536 5.29281 2.29289C5.10527 2.48043 4.99991 2.73478 4.99991 3V14.18C4.42076 14.3902 3.92037 14.7736 3.56676 15.2782C3.21314 15.7827 3.02344 16.3839 3.02344 17C3.02344 17.6161 3.21314 18.2173 3.56676 18.7218C3.92037 19.2264 4.42076 19.6098 4.99991 19.82V21C4.99991 21.2652 5.10527 21.5196 5.29281 21.7071C5.48034 21.8946 5.7347 22 5.99991 22C6.26513 22 6.51948 21.8946 6.70702 21.7071C6.89456 21.5196 6.99991 21.2652 6.99991 21V19.82C7.57907 19.6098 8.07945 19.2264 8.43307 18.7218C8.78669 18.2173 8.97639 17.6161 8.97639 17C8.97639 16.3839 8.78669 15.7827 8.43307 15.2782C8.07945 14.7736 7.57907 14.3902 6.99991 14.18ZM5.99991 18C5.80213 18 5.60879 17.9414 5.44434 17.8315C5.27989 17.7216 5.15172 17.5654 5.07603 17.3827C5.00035 17.2 4.98054 16.9989 5.01913 16.8049C5.05771 16.6109 5.15296 16.4327 5.29281 16.2929C5.43266 16.153 5.61084 16.0578 5.80482 16.0192C5.9988 15.9806 6.19987 16.0004 6.3826 16.0761C6.56532 16.1518 6.7215 16.28 6.83138 16.4444C6.94127 16.6089 6.99991 16.8022 6.99991 17C6.99991 17.2652 6.89456 17.5196 6.70702 17.7071C6.51948 17.8946 6.26513 18 5.99991 18ZM20.9999 13C20.9982 12.3811 20.805 11.7778 20.447 11.2729C20.0889 10.7681 19.5835 10.3863 18.9999 10.18V3C18.9999 2.73478 18.8946 2.48043 18.707 2.29289C18.5195 2.10536 18.2651 2 17.9999 2C17.7347 2 17.4803 2.10536 17.2928 2.29289C17.1053 2.48043 16.9999 2.73478 16.9999 3V10.18C16.4208 10.3902 15.9204 10.7736 15.5668 11.2782C15.2131 11.7827 15.0234 12.3839 15.0234 13C15.0234 13.6161 15.2131 14.2173 15.5668 14.7218C15.9204 15.2264 16.4208 15.6098 16.9999 15.82V21C16.9999 21.2652 17.1053 21.5196 17.2928 21.7071C17.4803 21.8946 17.7347 22 17.9999 22C18.2651 22 18.5195 21.8946 18.707 21.7071C18.8946 21.5196 18.9999 21.2652 18.9999 21V15.82C19.5835 15.6137 20.0889 15.2319 20.447 14.7271C20.805 14.2222 20.9982 13.6189 20.9999 13ZM17.9999 14C17.8021 14 17.6088 13.9414 17.4443 13.8315C17.2799 13.7216 17.1517 13.5654 17.076 13.3827C17.0003 13.2 16.9805 12.9989 17.0191 12.8049C17.0577 12.6109 17.153 12.4327 17.2928 12.2929C17.4327 12.153 17.6108 12.0578 17.8048 12.0192C17.9988 11.9806 18.1999 12.0004 18.3826 12.0761C18.5653 12.1518 18.7215 12.28 18.8314 12.4444C18.9413 12.6089 18.9999 12.8022 18.9999 13C18.9999 13.2652 18.8946 13.5196 18.707 13.7071C18.5195 13.8946 18.2651 14 17.9999 14ZM14.9999 5C15.0015 4.44965 14.8516 3.90948 14.5667 3.4386C14.2818 2.96773 13.8729 2.5843 13.3846 2.33027C12.8964 2.07624 12.3477 1.96141 11.7986 1.99834C11.2495 2.03527 10.7211 2.22254 10.2713 2.53966C9.82151 2.85677 9.4676 3.29151 9.24833 3.79629C9.02905 4.30108 8.95286 4.85645 9.02808 5.40164C9.10331 5.94683 9.32706 6.46082 9.67484 6.88736C10.0226 7.3139 10.481 7.63655 10.9999 7.82V21C10.9999 21.2652 11.1053 21.5196 11.2928 21.7071C11.4803 21.8946 11.7347 22 11.9999 22C12.2651 22 12.5195 21.8946 12.707 21.7071C12.8946 21.5196 12.9999 21.2652 12.9999 21V7.82C13.5835 7.61369 14.0889 7.23193 14.447 6.72707C14.805 6.2222 14.9982 5.61895 14.9999 5ZM11.9999 6C11.8021 6 11.6088 5.94135 11.4443 5.83147C11.2799 5.72159 11.1517 5.56541 11.076 5.38268C11.0003 5.19996 10.9805 4.99889 11.0191 4.80491C11.0577 4.61093 11.153 4.43275 11.2928 4.29289C11.4327 4.15304 11.6108 4.0578 11.8048 4.01922C11.9988 3.98063 12.1999 4.00043 12.3826 4.07612C12.5653 4.15181 12.7215 4.27998 12.8314 4.44443C12.9413 4.60888 12.9999 4.80222 12.9999 5C12.9999 5.26522 12.8946 5.51957 12.707 5.70711C12.5195 5.89464 12.2651 6 11.9999 6Z" fill="#B5B5A8"/>
</svg>
