<svg width="1094" height="1163" viewBox="0 0 1094 1163" fill="none" xmlns="http://www.w3.org/2000/svg">
<path d="M1067.22 292.5C1050.26 309 1063.65 511.5 998.48 481.5C933.312 451.5 817.55 380.328 684.692 339.5C607.474 315.77 521.392 298.488 515.97 209C509.302 98.9473 706.564 105 765.929 124.5C825.294 144 914.565 182.5 917.69 114C920.814 45.4999 882.874 -44 823.509 33C764.143 110 933.759 130.5 865.912 292.5C798.066 454.5 587.833 339.5 532.039 523.5C476.244 707.5 398.578 392 316.002 369C233.427 346 166.58 372.456 111.572 443.5C5.01818 581.115 347.96 932.53 412.862 765.5C428.088 726.313 432.207 700.722 431.162 658C426.428 464.363 16.424 597.256 4.44632 790.5C-7.94499 990.418 347.694 1199 458.836 1119" stroke="#1C2E1E" stroke-width="8" stroke-linejoin="round" stroke-dasharray="1 20"/>
<ellipse cx="1070.79" cy="288" rx="23.2105" ry="26" fill="black"/>
<ellipse cx="517.309" cy="180" rx="23.2105" ry="26" fill="black"/>
<ellipse cx="914.565" cy="95" rx="23.2105" ry="26" fill="black"/>
<ellipse cx="163.795" cy="396" rx="23.2105" ry="26" fill="black"/>
<ellipse cx="378.046" cy="806" rx="23.2105" ry="26" fill="black"/>
<ellipse cx="27.2105" cy="889" rx="23.2105" ry="26" fill="black"/>
<path d="M428.172 1102.07L448.904 1084L464.983 1119.41L490.918 1144.49L470.186 1162.56L453.411 1129.49L428.172 1102.07Z" fill="black"/>
<path d="M474.631 1085.98L493.206 1106.79L463.833 1129.05L444.826 1160.98L426.252 1140.18L453.466 1117.44L474.631 1085.98Z" fill="black"/>
</svg>
